# xmcd
#
# Track frame offsets:
#	150
#	2700
#	6450
#	9075
#	13575
#	16275
#	20850
#	23485
#	27675
#	33750
#	43485
#	48225
#	55500
#	60530
#	64315
#	69600
#	74475
#	80175
#	84000
#	89625
#	95700
#	101100
#	104925
#	111450
#	114975
#	118875
#	122325
#	126600
#	131625
#	134325
#	141075
#	144750
#	148350
#	154650
#	164550
#	168675
#	175800
#	180150
#	183375
#	189900
#	192675
#	201900
#	207825
#	216000
#	221550
#	225600
#	229725
#	233850
#	238875
#	243300
#
# Disc length: 3331 seconds
#
# Revision: 0
# Processed by: cddbd v1.5.2PL0 Copyright (c) Steve Scherf et al.
# Submitted via: EZCDAudioConverter 8.0.2.1
#
DISCID=e50d0132
DTITLE=中央人民广播电台少年广播合唱团 - 梦幻童年,甜美童歌-50首童年儿歌经典
DYEAR=2002
DGENRE=Kids
TTITLE0=我们的田野
TTITLE1=少年少年祖国的春天
TTITLE2=快乐的节日
TTITLE3=歌声与微笑
TTITLE4=幸福拍手歌
TTITLE5=种太阳
TTITLE6=劳动最光荣
TTITLE7=鲁冰花
TTITLE8=小小少年
TTITLE9=放风筝
TTITLE10=Do Re Mi
TTITLE11=祖国和少年
TTITLE12=在老师身边
TTITLE13=读书郎
TTITLE14=小马车
TTITLE15=采蘑菇的小姑娘
TTITLE16=婉君
TTITLE17=牛背上的孩子
TTITLE18=海鸥
TTITLE19=弯弯的月儿像小船
TTITLE20=快乐的小歌手
TTITLE21=七色光之歌
TTITLE22=乘着歌声的翅膀
TTITLE23=我们多么幸福
TTITLE24=我们要做雷锋式的好少年
TTITLE25=库尔班大叔喜洋洋
TTITLE26=我的梅花小鹿
TTITLE27=小草
TTITLE28=嘀哩嘀哩
TTITLE29=我的小鸡
TTITLE30=红星歌
TTITLE31=校园多美好
TTITLE32=让我们荡起双桨
TTITLE33=雨花石
TTITLE34=新鞋子旧鞋子
TTITLE35=清晨
TTITLE36=小牧笛
TTITLE37=小螺号
TTITLE38=太阳一出照四方
TTITLE39=卖报歌
TTITLE40=每当我走过老师窗前
TTITLE41=校园里的小白杨
TTITLE42=花仙子之歌
TTITLE43=蓝精灵之歌
TTITLE44=对花
TTITLE45=牧马之歌
TTITLE46=阿童木之歌
TTITLE47=三月里的小雨
TTITLE48=男孩
TTITLE49=六一国际儿童节
EXTD=
EXTT0=
EXTT1=
EXTT2=
EXTT3=
EXTT4=
EXTT5=
EXTT6=
EXTT7=
EXTT8=
EXTT9=
EXTT10=
EXTT11=
EXTT12=
EXTT13=
EXTT14=
EXTT15=
EXTT16=
EXTT17=
EXTT18=
EXTT19=
EXTT20=
EXTT21=
EXTT22=
EXTT23=
EXTT24=
EXTT25=
EXTT26=
EXTT27=
EXTT28=
EXTT29=
EXTT30=
EXTT31=
EXTT32=
EXTT33=
EXTT34=
EXTT35=
EXTT36=
EXTT37=
EXTT38=
EXTT39=
EXTT40=
EXTT41=
EXTT42=
EXTT43=
EXTT44=
EXTT45=
EXTT46=
EXTT47=
EXTT48=
EXTT49=
PLAYORDER=
